<?xml version="1.0" standalone="no"?>
<!DOCTYPE svg PUBLIC "-//W3C//DTD SVG 20010904//EN"
 "http://www.w3.org/TR/2001/REC-SVG-20010904/DTD/svg10.dtd">
<svg version="1.0" xmlns="http://www.w3.org/2000/svg"
 width="700.000000pt" height="400.000000pt" viewBox="0 0 700.000000 400.000000"
 preserveAspectRatio="xMidYMid meet">

<g transform="translate(0.000000,400.000000) scale(0.100000,-0.100000)"
fill="#000000" stroke="none">
<path d="M1972 3988 c-6 -7 -34 -53 -62 -103 -44 -75 -56 -109 -78 -209 l-26
-119 22 -132 21 -133 123 -122 c68 -67 162 -156 211 -198 79 -69 87 -79 87
-112 0 -19 -6 -44 -14 -55 -8 -11 -42 -71 -75 -133 -52 -96 -68 -137 -101
-265 -30 -120 -110 -491 -110 -514 0 -3 -27 -33 -60 -67 l-59 -62 -16 -95
c-21 -136 -18 -216 16 -337 29 -101 29 -103 11 -130 -11 -15 -30 -44 -43 -64
-18 -28 -40 -45 -86 -64 -54 -23 -82 -47 -196 -163 -168 -172 -205 -218 -205
-254 1 -28 4 -29 57 -9 10 4 12 1 6 -9 -17 -30 -39 -49 -57 -49 -10 0 -18 -4
-18 -10 0 -5 4 -10 9 -10 5 0 7 -9 4 -20 -3 -11 -9 -17 -14 -14 -5 3 -9 0 -9
-5 0 -6 5 -11 11 -11 7 0 9 -9 5 -24 -3 -13 -1 -27 4 -29 6 -3 5 -4 -2 -3 -7
1 -24 18 -38 38 -70 97 -97 128 -162 184 -39 34 -92 72 -117 85 -25 12 -71 38
-101 58 -87 56 -93 59 -138 82 -24 11 -60 35 -80 53 -21 17 -63 49 -95 70
-104 70 -151 141 -192 291 -8 27 -26 78 -40 113 -15 35 -32 100 -39 145 -8 45
-21 111 -29 147 -30 121 -50 264 -58 400 -8 151 -22 210 -68 290 -32 54 -147
180 -165 180 -5 0 20 -28 56 -63 113 -110 158 -216 159 -375 0 -48 4 -107 9
-132 4 -25 17 -101 29 -170 11 -69 28 -150 36 -180 8 -30 15 -67 15 -83 0 -36
25 -124 55 -197 12 -30 34 -93 49 -140 35 -112 83 -173 196 -250 19 -13 55
-40 80 -61 25 -20 67 -46 93 -59 27 -12 69 -37 95 -54 26 -17 76 -47 112 -65
79 -42 176 -125 235 -202 63 -82 67 -93 77 -198 5 -53 11 -121 14 -151 5 -43
0 -74 -19 -138 l-25 -82 42 0 42 0 13 61 c7 34 22 78 35 98 12 20 30 52 39 71
21 43 38 70 55 88 6 7 12 22 12 32 0 10 7 25 15 34 8 8 19 26 25 40 14 37 33
34 25 -4 -7 -30 -2 -35 35 -31 13 2 13 0 1 -8 -11 -7 -12 -13 -3 -23 6 -7 9
-26 8 -41 -4 -34 9 -44 23 -19 12 23 76 36 104 21 25 -14 67 3 67 27 0 10 5
14 15 10 8 -3 26 0 40 6 29 13 43 5 27 -15 -8 -10 -6 -16 9 -25 11 -7 17 -17
14 -23 -4 -5 -3 -8 2 -7 8 3 13 -5 13 -23 0 -5 -4 -7 -10 -4 -5 3 -10 -2 -10
-12 0 -10 9 -24 20 -31 11 -7 20 -19 20 -27 0 -8 5 -15 10 -15 6 0 10 -4 10
-10 0 -5 -3 -10 -7 -9 -5 1 -18 -2 -30 -6 -25 -8 -20 -37 6 -33 22 4 21 -26
-1 -30 -10 -2 -18 2 -18 8 0 6 -4 9 -10 5 -5 -3 -7 -12 -3 -20 3 -8 0 -15 -7
-15 -6 0 -8 -5 -4 -11 5 -8 1 -8 -14 0 -28 15 -32 14 -26 -4 4 -8 1 -15 -5
-15 -6 0 -11 8 -11 18 0 10 -7 27 -15 38 -14 19 -14 18 -15 -3 0 -13 5 -23 11
-23 8 0 8 -4 -1 -15 -10 -12 -7 -15 12 -20 13 -4 31 -5 39 -3 8 2 13 -4 13
-14 -2 -17 51 -18 888 -18 l890 0 -6 22 c-3 13 -9 48 -13 78 -6 50 -19 86 -58
161 -8 14 -16 38 -19 55 -7 38 -27 84 -36 84 -4 0 -13 21 -21 48 -7 26 -25 67
-39 92 -26 45 -43 79 -44 92 -1 4 -7 13 -13 19 -7 7 -13 23 -13 35 0 13 -4 26
-10 29 -5 3 -10 24 -10 46 0 24 -5 39 -12 39 -8 1 -6 6 4 14 10 7 15 16 11 19
-10 11 6 8 30 -5 12 -6 30 -22 40 -35 20 -25 71 -55 80 -47 9 10 -12 68 -33
88 l-20 20 0 -21 c0 -11 7 -26 15 -33 27 -23 16 -32 -12 -10 -40 31 -45 62
-14 78 21 11 27 10 43 -8 10 -11 25 -20 32 -20 7 0 25 -13 40 -29 41 -42 63
-46 71 -10 8 34 19 37 38 8 l15 -21 7 21 c8 27 36 42 64 34 14 -4 20 -11 16
-21 -5 -15 11 -42 25 -42 4 0 11 11 14 24 5 20 13 25 51 28 24 2 50 1 56 -1
20 -6 58 -103 52 -133 -3 -15 -1 -28 4 -28 5 0 17 -18 27 -40 16 -37 98 -129
157 -175 14 -11 40 -39 58 -62 21 -26 43 -43 59 -45 14 -2 30 -11 36 -22 6
-10 21 -29 34 -42 12 -13 22 -31 23 -41 0 -13 4 -10 13 10 l12 28 12 -39 c7
-22 12 -46 12 -55 0 -8 7 -28 15 -43 8 -16 17 -54 21 -86 l7 -57 583 -1 c432
0 584 3 584 11 0 6 -15 32 -33 58 -18 25 -36 54 -40 63 -3 10 -11 18 -17 18
-5 0 -10 7 -10 15 0 9 -9 15 -25 15 -14 0 -25 5 -25 10 0 6 7 10 16 10 12 0
14 4 7 13 -6 6 -15 27 -22 46 -9 27 -9 36 1 42 10 7 10 11 0 21 -10 10 -15 10
-22 -2 -11 -18 -14 -15 -28 29 -10 29 -10 32 3 21 8 -6 20 -10 27 -8 7 3 18
-2 24 -10 7 -10 16 -12 25 -6 8 5 21 9 29 9 18 0 35 76 48 224 9 96 8 110 -12
170 -18 51 -27 65 -44 66 -18 1 -20 -1 -9 -14 17 -23 -32 17 -70 57 -18 19
-37 31 -42 28 -5 -4 -13 4 -16 16 -4 12 -21 34 -39 50 -26 24 -29 30 -16 39
12 8 9 10 -12 6 -18 -3 -36 4 -55 20 l-28 23 40 -6 c70 -10 76 -13 73 -42 -2
-21 1 -27 19 -28 28 -2 21 17 -27 76 -49 60 -160 226 -160 239 0 6 -6 11 -13
11 -8 0 -19 12 -26 28 -8 15 -17 35 -22 44 -5 10 -9 25 -9 35 0 15 2 14 15 -3
8 -10 15 -27 15 -36 0 -10 5 -18 11 -18 7 0 8 7 4 18 -17 38 -57 226 -81 382
-30 195 -33 210 -46 207 -6 -1 -13 4 -15 11 -3 6 0 12 6 12 6 0 11 8 11 18 0
10 -7 19 -15 19 -8 0 -12 -4 -9 -9 3 -4 0 -8 -6 -8 -12 0 -39 58 -47 100 -2
14 -13 39 -24 55 -10 17 -30 55 -45 85 -14 30 -33 71 -43 90 -10 19 -24 52
-31 74 -7 21 -25 63 -41 93 -32 61 -37 90 -14 90 8 0 15 -5 14 -11 -3 -24 2
-37 11 -31 6 3 10 1 10 -6 0 -7 2 -10 5 -8 2 3 -4 52 -14 110 -13 80 -26 120
-56 174 -51 93 -60 106 -70 97 -5 -4 -5 -1 -1 6 4 7 -2 28 -13 48 -12 20 -19
40 -15 45 3 6 54 46 112 90 135 100 273 256 292 327 7 26 14 55 17 65 3 10 15
18 31 18 25 2 26 2 3 6 -21 4 -23 8 -15 41 5 21 9 102 8 182 0 137 -2 148 -28
208 l-29 62 -54 0 -54 0 20 -28 c26 -37 59 -137 62 -187 2 -49 -18 -232 -27
-247 -10 -16 -158 -6 -434 28 -127 16 -151 25 -163 57 -4 9 -18 22 -32 27 -22
8 -31 26 -26 54 1 4 -12 6 -29 4 -25 -4 -30 -1 -30 15 0 14 5 18 20 14 17 -4
19 -1 14 20 -5 17 -3 24 7 23 30 -5 69 0 69 8 0 5 -15 7 -32 6 l-33 -3 33 11
c17 6 32 17 32 24 0 8 6 14 14 14 7 0 19 7 26 15 20 24 -9 19 -36 -6 -32 -30
-56 -19 -52 23 2 26 7 32 23 30 55 -7 89 -5 93 6 2 7 9 9 15 6 9 -5 8 -3 0 6
-10 11 -15 11 -27 0 -19 -15 -46 -7 -46 14 0 8 -8 23 -17 32 -17 17 -17 18 0
11 11 -4 28 -1 40 8 20 14 19 15 -24 15 -44 0 -45 -1 -42 -27 6 -38 -28 -61
-52 -36 -11 10 -14 24 -11 39 8 31 5 30 -34 -6 -36 -34 -52 -34 -60 -1 -5 21
-5 21 -22 2 -9 -11 -14 -28 -11 -40 4 -15 -2 -23 -23 -33 -16 -7 -47 -27 -69
-44 -70 -55 -83 -59 -111 -33 -25 23 -33 46 -12 33 7 -5 9 -2 5 9 -3 9 0 18 9
21 8 3 14 12 14 19 0 7 11 20 25 27 14 7 25 21 25 31 0 9 10 20 23 25 16 6 7
9 -37 11 -40 3 -62 0 -67 -8 -6 -10 -11 -10 -22 0 -25 20 -82 5 -84 -22 0 -12
-2 -38 -4 -56 -1 -20 3 -37 9 -39 7 -2 12 -15 12 -28 0 -13 5 -24 10 -24 6 0
10 5 10 11 0 5 5 7 10 4 5 -3 10 -10 10 -16 0 -12 -37 -12 -45 1 -4 6 -11 8
-16 4 -6 -3 -16 2 -24 12 -11 16 -17 16 -39 6 -32 -14 -60 -16 -52 -3 4 5 0
11 -6 14 -8 3 -6 7 7 11 11 4 33 14 49 22 22 11 31 12 37 3 4 -6 6 9 5 35 -1
25 3 48 9 50 6 3 5 5 -2 5 -6 1 -20 -10 -31 -24 -11 -14 -25 -25 -32 -25 -7 0
-9 -8 -5 -22 6 -19 5 -21 -6 -10 -7 6 -23 12 -35 12 -12 0 -22 -6 -21 -12 0
-7 -1 -24 -2 -38 l-3 -25 -8 25 c-4 14 -8 31 -9 38 -1 16 60 54 77 47 7 -2 17
6 22 20 5 14 15 25 21 25 7 0 9 3 6 6 -3 4 -22 -1 -41 -10 -43 -20 -46 -20
-46 1 0 15 -1 15 -12 2 -30 -36 -128 -110 -138 -104 -5 3 -10 -1 -10 -9 0 -9
-4 -16 -10 -16 -24 0 -8 47 25 73 43 34 44 47 5 47 -16 0 -30 5 -30 10 0 35
-94 -15 -113 -60 l-11 -25 -3 25 c-9 66 -12 70 -48 70 -33 0 -34 -1 -25 -25 9
-24 8 -25 -25 -25 -24 0 -35 5 -35 15 0 8 5 15 12 15 9 0 9 3 0 12 -9 9 -15 8
-25 -6 -12 -17 -15 -17 -29 -2 -18 17 -74 15 -92 -5 -8 -9 -7 -10 6 -6 10 3
20 2 23 -3 3 -5 -4 -12 -15 -15 -16 -5 -18 -10 -10 -20 8 -9 5 -14 -12 -19
-35 -9 -38 -8 -38 20 0 20 -4 25 -16 20 -9 -3 -22 -6 -30 -6 -9 0 -14 -11 -14
-29 0 -17 -5 -33 -11 -36 -6 -4 -8 -13 -5 -21 3 -8 0 -11 -9 -7 -8 3 -13 9
-10 13 3 4 -2 10 -10 14 -19 7 -19 -4 1 -32 16 -24 9 -27 -30 -13 -16 7 -26
19 -28 37 -3 29 -28 46 -28 20 0 -9 -4 -16 -9 -16 -4 0 -8 8 -8 18 0 35 -3 41
-18 36 -12 -5 -15 2 -15 30 0 24 -5 36 -14 36 -18 0 -26 -31 -21 -80 4 -34 2
-38 -13 -33 -9 4 -22 14 -28 22 -10 12 -15 13 -27 3 -8 -7 -22 -9 -32 -6 -17
7 -17 8 1 22 18 14 18 14 -3 9 -13 -3 -23 -1 -23 4 0 5 -7 9 -15 9 -8 0 -15
-4 -15 -10 0 -18 -39 -10 -54 11 -10 15 -20 19 -35 14 -11 -3 -51 3 -89 14
-73 22 -168 28 -157 11 3 -6 23 -7 43 -4 l37 6 18 -64 c10 -34 23 -80 28 -101
5 -22 16 -46 24 -54 19 -18 20 -57 3 -48 -7 4 -6 1 2 -7 9 -7 17 -26 18 -43 1
-16 7 -34 12 -39 6 -6 10 -21 10 -34 0 -19 3 -22 13 -13 17 14 27 4 27 -26 0
-14 5 -34 11 -45 6 -11 13 -34 16 -49 3 -22 0 -29 -12 -29 -11 0 -15 5 -11 15
3 8 0 15 -7 15 -7 0 -23 7 -35 16 -18 13 -21 19 -11 30 6 8 8 15 3 15 -42 6
-76 23 -104 54 l-25 28 28 -5 c15 -3 30 -1 33 3 3 5 -9 9 -26 9 -23 0 -33 5
-37 19 -3 11 -14 22 -25 24 -15 4 -19 12 -15 26 3 14 -1 22 -14 26 -18 6 -76
80 -77 99 0 5 -4 12 -9 15 -4 3 -16 22 -25 41 -13 28 -17 31 -17 13 -1 -11 9
-40 21 -63 19 -35 20 -42 8 -50 -11 -7 -11 -10 -2 -10 14 0 62 -47 62 -61 0
-4 -12 -12 -27 -18 -24 -10 -25 -11 -4 -7 23 5 81 -26 81 -43 0 -4 -15 -6 -32
-4 l-33 4 30 -15 c17 -8 26 -15 20 -16 -5 -1 3 -5 19 -9 31 -6 49 -31 23 -31
-10 0 -13 -7 -10 -20 3 -11 9 -20 14 -20 15 0 54 -44 51 -57 -1 -7 6 -18 18
-25 11 -7 20 -18 20 -24 0 -6 12 -24 26 -39 14 -15 23 -34 20 -41 -6 -16 -36
-19 -36 -4 0 5 7 6 17 3 11 -4 14 -3 9 5 -4 7 -16 12 -27 12 -11 0 -17 5 -14
10 4 6 3 9 -2 8 -4 -2 -45 35 -91 82 -45 47 -96 99 -113 116 -16 17 -31 41
-32 53 -1 14 -13 28 -34 38 -35 16 -44 33 -18 33 8 0 15 5 15 10 0 6 -9 10
-20 10 -28 0 -71 44 -64 65 3 8 -1 26 -10 40 -22 33 -38 33 -26 -1 6 -14 8
-30 4 -35 -3 -5 6 -23 20 -40 14 -17 26 -35 26 -40 0 -10 71 -101 96 -124 6
-5 23 -27 39 -48 15 -20 39 -43 54 -50 17 -8 25 -20 24 -33 -2 -15 7 -25 30
-35 20 -9 32 -21 32 -33 0 -10 10 -22 21 -27 28 -10 35 -32 28 -79 l-6 -39
-37 26 c-20 15 -52 42 -71 59 -19 18 -52 47 -72 64 -21 18 -38 36 -38 42 0 5
4 7 9 4 5 -3 11 1 14 9 4 9 1 12 -8 9 -22 -9 -95 29 -158 81 -79 64 -83 52 -5
-16 34 -30 74 -65 89 -79 14 -14 42 -38 62 -54 21 -15 37 -36 38 -45 0 -12 2
-13 6 -2 4 9 20 -1 53 -35 26 -27 64 -63 84 -80 67 -57 37 -55 -83 6 -131 67
-200 116 -303 216 -38 36 -68 61 -68 55 0 -20 167 -177 242 -229 24 -16 74
-46 111 -66 61 -33 142 -94 134 -103 -2 -1 -43 11 -91 28 -48 17 -90 28 -92
26 -3 -2 24 -17 58 -32 89 -39 55 -43 -42 -4 -44 17 -83 29 -87 26 -6 -7 73
-44 167 -78 33 -12 60 -27 60 -33 0 -17 -38 -56 -55 -56 -54 0 -285 166 -285
205 0 8 -10 22 -22 32 -26 20 -71 86 -104 152 -24 46 -36 164 -19 190 5 10 4
16 -3 19 -14 4 -6 122 14 185 8 27 24 58 35 70 10 11 19 27 19 34 0 7 4 13 8
13 5 0 14 11 20 24 6 14 28 43 48 65 l36 41 -60 0 c-35 0 -64 -5 -70 -12z
m1928 -18 c0 -11 -4 -20 -9 -20 -14 0 -23 18 -16 30 10 17 25 11 25 -10z
m-1404 -6 c27 -9 56 -24 65 -35 9 -10 19 -15 23 -12 3 4 6 -3 6 -15 0 -11 4
-23 8 -26 17 -10 132 -14 132 -4 0 9 88 3 98 -7 2 -1 5 -25 8 -52 4 -43 1 -52
-21 -73 -26 -25 -33 -50 -13 -50 9 0 9 -3 0 -12 -8 -8 -15 -8 -24 -1 -18 14
-67 22 -74 12 -3 -5 -18 -9 -34 -9 -22 0 -28 -4 -24 -15 4 -8 3 -23 -1 -32 -6
-17 -7 -17 -20 1 -8 10 -12 23 -9 27 3 5 -1 7 -8 4 -7 -3 -26 6 -43 20 -22 18
-26 24 -13 25 9 0 20 -4 23 -10 3 -5 18 -10 33 -10 34 0 19 13 -35 30 -34 11
-45 20 -57 52 -20 48 -20 44 7 53 20 7 19 8 -10 12 -38 5 -40 10 -15 29 14 12
15 15 2 23 -8 5 -17 8 -21 5 -9 -5 -34 34 -41 64 -7 26 -5 27 58 6z m736 -3
c12 -14 13 -22 5 -30 -8 -8 -8 -11 1 -11 7 0 12 -7 12 -15 0 -16 -14 -18 -44
-6 -14 5 -16 10 -7 15 9 6 9 11 0 22 -12 14 -6 44 8 44 5 0 16 -9 25 -19z
m282 0 c3 -5 -1 -14 -8 -20 -12 -10 -13 -8 -9 8 6 23 9 25 17 12z m-214 -41
c0 -11 -4 -20 -9 -20 -14 0 -23 18 -16 30 10 17 25 11 25 -10z m-642 -12 c2
-4 17 -8 33 -8 35 0 39 -15 5 -18 -29 -2 -96 24 -96 38 0 12 53 1 58 -12z
m1599 12 c21 0 21 -2 7 -27 -20 -41 -17 -50 9 -25 27 26 37 28 37 8 0 -8 7
-21 15 -30 14 -13 14 -16 -3 -25 -14 -7 -29 -3 -64 19 -25 16 -48 37 -52 47
-3 10 -9 24 -12 32 -5 11 -1 13 17 8 13 -4 34 -7 46 -7z m-1177 -46 c0 -8 -5
-12 -10 -9 -6 4 -8 11 -5 16 9 14 15 11 15 -7z m440 -5 c0 -5 -4 -9 -10 -9 -5
0 -10 7 -10 16 0 8 5 12 10 9 6 -3 10 -10 10 -16z m680 1 c0 -6 11 -20 25 -32
14 -12 25 -29 25 -37 0 -13 2 -13 9 -2 9 13 31 7 31 -8 0 -15 -44 -21 -53 -8
-7 9 -10 9 -14 0 -5 -14 -35 -18 -46 -6 -4 3 -2 12 4 20 9 9 8 13 0 13 -6 0
-11 -4 -11 -10 0 -5 -7 -10 -15 -10 -8 0 -15 -3 -15 -7 0 -5 -16 -8 -35 -8
-19 0 -35 3 -35 8 0 4 5 7 11 7 5 0 8 4 4 9 -6 11 47 51 68 51 8 0 17 7 21 15
6 17 26 21 26 5z m-922 -59 c12 -13 12 -17 -4 -28 -23 -17 -29 -16 -44 2 -10
13 -10 19 4 34 12 13 14 21 6 26 -5 3 -7 11 -3 18 4 7 11 2 17 -14 6 -13 17
-30 24 -38z m-205 30 c-4 -3 -11 -10 -15 -15 -5 -5 -8 0 -8 12 0 15 4 20 16
15 9 -3 12 -9 7 -12z m-57 -33 c3 -5 4 -11 1 -14 -6 -6 -57 17 -57 26 0 10 49
0 56 -12z m-41 -38 c9 0 13 -5 10 -10 -4 -6 -16 -8 -28 -5 -16 5 -18 4 -8 -3
9 -7 10 -12 2 -16 -16 -10 -33 4 -27 21 4 9 -1 17 -14 20 -11 3 -20 10 -20 15
0 5 3 7 8 5 4 -3 16 -1 27 3 15 5 22 2 27 -11 4 -11 15 -19 23 -19z m-84 -50
c18 0 9 -15 -16 -27 -15 -6 -25 -7 -25 -1 0 5 -4 6 -10 3 -12 -8 -13 0 -1 23
5 9 15 31 22 47 l14 30 3 -37 c2 -21 7 -38 13 -38z m1399 40 c0 -5 -7 -10 -16
-10 -8 0 -12 5 -9 10 3 6 10 10 16 10 5 0 9 -4 9 -10z m-20 -34 c0 -8 -4 -17
-9 -20 -10 -7 -23 19 -14 28 11 11 23 6 23 -8z m-418 -31 c3 -14 1 -25 -3 -25
-5 0 -9 11 -9 25 0 14 2 25 4 25 2 0 6 -11 8 -25z m-1953 -31 c3 -16 1 -17
-13 -5 -19 16 -21 34 -3 29 6 -3 14 -13 16 -24z m926 -11 c-1 -16 3 -36 7 -45
9 -20 -6 -25 -18 -7 -3 6 -17 8 -30 5 -33 -9 -33 21 0 33 13 5 26 17 29 25 9
23 13 20 12 -11z m-142 -40 c-9 -24 -23 -13 -23 19 0 30 1 30 14 13 8 -11 12
-25 9 -32z m1194 10 c13 -20 14 -28 5 -31 -10 -3 -10 -7 -1 -18 7 -8 9 -17 6
-20 -8 -9 -40 44 -43 72 -3 32 11 30 33 -3z m353 7 c0 -5 -2 -10 -4 -10 -3 0
-8 5 -11 10 -3 6 -1 10 4 10 6 0 11 -4 11 -10z m-1553 -76 c7 -7 18 -14 25
-17 10 -3 10 -7 1 -17 -16 -18 -67 9 -71 38 -3 18 0 21 15 15 10 -4 24 -12 30
-19z m1603 16 c0 -5 -4 -10 -10 -10 -5 0 -10 5 -10 10 0 6 5 10 10 10 6 0 10
-4 10 -10z m305 -24 c61 -9 172 -21 249 -27 l138 -12 -6 -45 c-3 -25 -16 -57
-31 -74 -14 -16 -25 -34 -25 -39 0 -12 -109 -121 -165 -165 -22 -18 -62 -53
-90 -78 -27 -25 -54 -46 -58 -46 -5 0 -6 -4 -2 -9 12 -20 -15 -21 -35 -1 -22
22 -27 60 -8 60 7 0 5 7 -5 18 -14 16 -38 86 -42 124 0 9 -7 23 -14 32 -8 9
-9 16 -3 16 6 0 12 -6 15 -12 2 -7 8 -9 13 -5 4 4 0 23 -10 42 -18 33 -18 34
3 56 21 23 23 46 3 42 -6 -2 -14 13 -18 31 -3 19 -14 42 -25 52 -10 9 -16 21
-13 25 3 5 -2 9 -11 9 -9 0 -14 4 -11 9 4 5 0 12 -6 15 -7 3 1 4 17 1 17 -2
80 -11 140 -19z m-289 -14 c-8 -9 -19 -13 -22 -9 -10 9 16 38 28 31 6 -4 4
-13 -6 -22z m84 -3 c0 -5 -8 -5 -17 -2 -12 5 -15 2 -10 -10 7 -18 -1 -21 -21
-9 -21 14 -4 40 24 34 13 -2 24 -8 24 -13z m-565 -1 c159 -3 245 -28 321 -93
30 -26 66 -63 81 -82 24 -31 30 -48 32 -94 1 -8 10 -25 21 -36 14 -15 16 -23
7 -26 -7 -3 -5 -6 4 -6 22 -1 29 -21 23 -68 -2 -21 -2 -32 2 -25 12 26 22 10
12 -19 -9 -26 -8 -33 5 -40 9 -5 15 -22 15 -38 -1 -26 -3 -28 -28 -18 -21 8
-54 5 -136 -10 -150 -29 -193 -49 -242 -115 -60 -82 -65 -94 -57 -154 7 -57
15 -69 59 -80 25 -6 28 -5 22 13 -9 27 30 38 84 23 44 -12 53 -29 18 -31 -22
-1 -22 -1 2 -9 14 -4 18 -8 10 -9 -28 -2 44 -50 85 -56 61 -10 118 -27 135
-40 8 -7 21 -14 29 -17 19 -5 23 -31 15 -95 -3 -33 -10 -53 -18 -53 -17 0 -48
-35 -39 -43 8 -9 -17 -57 -42 -80 -11 -10 -14 -16 -7 -12 6 3 12 1 12 -4 0 -6
-4 -11 -9 -11 -6 0 -16 -12 -23 -27 -15 -31 -38 -42 -38 -18 0 9 -4 14 -10 10
-5 -3 -8 -21 -6 -39 1 -24 -2 -32 -10 -29 -8 3 -11 -2 -7 -16 3 -12 1 -21 -6
-21 -6 0 -10 -3 -10 -7 4 -25 -5 -41 -39 -63 -20 -13 -40 -25 -44 -25 -18 -1
-19 -17 -3 -35 21 -23 37 -26 29 -6 -4 10 1 14 15 13 12 -1 21 -7 21 -15 0 -7
5 -10 10 -7 6 3 10 2 10 -4 0 -17 -33 -29 -70 -26 -21 2 -34 8 -32 15 1 7 -2
18 -8 25 -6 7 -8 19 -5 26 4 10 -5 14 -31 15 -20 0 -39 5 -42 10 -10 13 -42
17 -42 4 0 -5 -4 -10 -10 -10 -5 0 -10 7 -10 15 0 8 7 15 15 15 8 0 15 5 15
11 0 5 -4 7 -10 4 -5 -3 -10 0 -10 8 0 8 -7 20 -15 27 -8 7 -13 16 -10 20 2 4
-1 15 -8 24 -14 19 -47 12 -47 -10 0 -15 -28 -18 -48 -5 -7 4 -12 14 -10 22 5
25 -56 21 -152 -10 -51 -17 -103 -31 -116 -31 -26 0 -51 -34 -33 -46 6 -3 57
-8 113 -10 106 -4 185 -11 224 -21 16 -4 22 -1 22 11 0 9 -7 16 -16 16 -10 0
-14 7 -12 23 4 28 41 30 47 2 2 -11 10 -25 19 -31 24 -18 8 -46 -23 -38 -16 4
-25 2 -25 -6 0 -7 -6 -6 -16 4 -22 23 -32 20 -27 -8 5 -24 -19 -42 -39 -30 -5
3 -18 -3 -29 -15 -11 -12 -26 -21 -34 -21 -18 0 -19 -6 -5 -23 6 -7 16 -20 23
-29 7 -11 40 -23 80 -32 75 -15 104 -37 114 -86 5 -27 0 -36 -38 -71 -24 -22
-52 -41 -64 -44 -11 -2 -54 -9 -96 -15 -71 -10 -79 -9 -150 16 -41 15 -92 39
-114 54 -37 26 -52 38 -115 93 -14 13 -41 32 -60 44 -19 12 -42 30 -51 40 -9
10 -25 25 -35 34 -72 60 -162 189 -148 211 4 6 2 13 -4 17 -24 14 -54 272 -53
455 0 88 17 160 61 261 22 49 50 153 50 183 0 12 4 22 8 22 5 0 14 17 20 38 7
22 27 59 45 83 18 24 47 73 66 109 34 68 128 170 155 170 9 0 16 6 16 14 0 8
19 21 42 31 23 9 47 22 52 29 18 21 154 46 216 40 19 -2 89 -5 155 -6z m520
-61 c10 -17 20 -39 21 -47 0 -8 2 -20 3 -26 0 -7 13 -14 27 -17 19 -3 24 -1
20 9 -3 8 -9 21 -12 29 -10 25 23 17 45 -11 27 -34 27 -53 1 -29 -21 19 -28 7
-8 -13 9 -9 6 -12 -16 -12 -15 0 -25 -4 -22 -9 3 -5 -1 -12 -10 -15 -25 -10
-34 -7 -34 9 0 8 8 15 17 15 14 0 13 3 -5 16 -12 8 -22 24 -22 35 0 10 -4 19
-10 19 -5 0 -10 8 -10 18 0 10 -7 27 -15 38 -18 24 -19 35 -2 29 6 -3 21 -20
32 -38z m55 -9 c0 -10 -5 -15 -13 -12 -11 4 -14 23 -8 54 3 11 21 -26 21 -42z
m6 -190 c-19 -11 -19 -11 0 -25 15 -11 16 -16 6 -22 -10 -6 -7 -12 12 -25 32
-20 34 -40 4 -30 -21 6 -22 6 -7 -17 9 -13 31 -35 50 -48 19 -13 26 -21 17
-18 -10 3 -19 3 -22 -1 -4 -7 -19 -8 -78 -3 -10 0 -18 6 -18 12 0 7 8 18 18
25 16 13 16 15 -1 28 -11 8 -25 12 -33 9 -16 -6 -18 6 -4 41 6 17 14 24 25 20
8 -3 15 -1 15 5 0 6 -7 11 -15 11 -20 0 -19 30 1 59 15 21 18 22 33 6 15 -15
15 -17 -3 -27z m74 -98 c0 -5 -5 -10 -11 -10 -5 0 -7 5 -4 10 3 6 8 10 11 10
2 0 4 -4 4 -10z m5 -50 c3 -5 1 -10 -4 -10 -6 0 -11 5 -11 10 0 6 2 10 4 10 3
0 8 -4 11 -10z m-2050 -50 c8 -13 -15 -13 -35 0 -12 8 -11 10 7 10 12 0 25 -4
28 -10z m2059 -32 c-6 -19 -5 -21 8 -11 22 18 28 6 14 -28 -9 -26 -8 -33 8
-44 18 -14 18 -15 -8 -24 -14 -6 -26 -16 -26 -22 0 -8 4 -8 13 -1 16 14 79 10
85 -6 2 -6 -4 -12 -13 -12 -13 0 -16 -6 -11 -23 4 -19 1 -23 -17 -22 -51 2
-130 55 -82 55 27 0 16 20 -15 27 -36 7 -40 23 -6 23 34 0 61 27 45 47 -7 7
-18 12 -25 9 -17 -6 -65 16 -61 29 2 5 22 8 45 6 25 -1 42 2 42 8 0 6 3 11 6
11 3 0 2 -10 -2 -22z m95 -74 c-11 -14 -14 -13 -21 1 -5 8 -13 13 -19 10 -12
-8 -12 2 1 25 10 19 11 19 31 -1 17 -17 18 -23 8 -35z m-300 -83 c12 -8 9 -11
-11 -16 -28 -7 -48 -1 -48 16 0 12 40 12 59 0z m73 -66 c4 -16 4 -41 1 -55 -7
-24 -8 -23 -18 15 -8 26 -19 41 -32 45 -17 4 -19 9 -12 29 9 21 11 22 31 9 12
-8 25 -28 30 -43z m-262 -64 c0 -5 -7 -11 -15 -15 -15 -5 -20 5 -8 17 9 10 23
9 23 -2z m110 -32 c0 -12 7 -19 19 -19 14 0 18 -5 14 -19 -8 -31 -124 -52
-123 -22 0 3 7 15 15 25 8 11 15 32 15 47 0 27 1 27 30 18 19 -7 30 -18 30
-30z m610 -374 c0 -14 -2 -25 -4 -25 -2 0 -6 11 -8 25 -3 14 -1 25 3 25 5 0 9
-11 9 -25z m-2033 -47 c-3 -8 -6 -5 -6 6 -1 11 2 17 5 13 3 -3 4 -12 1 -19z
m10 -80 c-3 -8 -6 -5 -6 6 -1 11 2 17 5 13 3 -3 4 -12 1 -19z m1053 -144 c0
-17 -22 -14 -28 4 -2 7 3 12 12 12 9 0 16 -7 16 -16z m18 -45 c-2 -6 -8 -10
-13 -10 -5 0 -11 4 -13 10 -2 6 4 11 13 11 9 0 15 -5 13 -11z m69 -79 c-6 -21
18 -29 25 -8 3 7 10 8 17 4 10 -6 5 -16 -19 -37 -17 -16 -36 -27 -41 -23 -7 4
-7 56 0 82 1 1 6 2 12 2 6 0 9 -9 6 -20z m-40 -6 c6 -16 -19 -44 -38 -44 -6 0
-6 45 0 58 4 9 33 -1 38 -14z m388 -4 c3 -5 1 -10 -4 -10 -6 0 -11 5 -11 10 0
6 2 10 4 10 3 0 8 -4 11 -10z m-271 -29 c3 -4 0 -16 -7 -25 -12 -16 -14 -16
-26 -2 -7 8 -10 20 -6 26 8 12 32 13 39 1z m261 -1 c3 -5 1 -10 -4 -10 -6 0
-11 5 -11 10 0 6 2 10 4 10 3 0 8 -4 11 -10z m-85 -30 c14 0 31 5 38 12 6 6
15 9 19 5 3 -4 -2 -14 -13 -22 -33 -25 -94 -17 -94 13 0 12 3 13 12 4 7 -7 24
-12 38 -12z m870 -80 c0 -12 -37 0 -51 16 -9 12 -6 12 20 3 17 -6 31 -15 31
-19z m-2123 -32 c-3 -8 -6 -5 -6 6 -1 11 2 17 5 13 3 -3 4 -12 1 -19z m-20
-90 c-3 -7 -5 -2 -5 12 0 14 2 19 5 13 2 -7 2 -19 0 -25z m40 -20 c-3 -7 -5
-2 -5 12 0 14 2 19 5 13 2 -7 2 -19 0 -25z m10 -50 c-3 -7 -5 -2 -5 12 0 14 2
19 5 13 2 -7 2 -19 0 -25z m2123 2 c0 -5 -4 -10 -10 -10 -5 0 -10 5 -10 10 0
6 5 10 10 10 6 0 10 -4 10 -10z m-1761 -79 c10 -10 27 -33 37 -52 11 -19 22
-36 26 -39 4 -3 9 -33 12 -66 3 -34 10 -73 16 -88 5 -15 10 -41 10 -58 l0 -31
-25 27 c-13 14 -29 26 -36 26 -6 0 -9 7 -6 14 4 10 1 13 -9 9 -8 -3 -14 -2
-13 3 4 14 -23 97 -36 114 -22 28 -26 49 -7 44 9 -2 7 1 -5 7 -17 9 -20 17
-16 45 5 28 3 34 -13 34 -16 1 -15 3 6 15 33 19 37 18 59 -4z m1331 -52 c0 -6
-4 -7 -10 -4 -5 3 -10 11 -10 16 0 6 5 7 10 4 6 -3 10 -11 10 -16z m-1663 -81
c-3 -8 -6 -5 -6 6 -1 11 2 17 5 13 3 -3 4 -12 1 -19z m1694 -10 c11 -21 11
-22 -4 -9 -10 7 -17 17 -17 22 0 15 9 10 21 -13z m-1684 -180 c-3 -8 -6 -5 -6
6 -1 11 2 17 5 13 3 -3 4 -12 1 -19z m10 -40 c-3 -8 -6 -5 -6 6 -1 11 2 17 5
13 3 -3 4 -12 1 -19z m433 -41 c0 -43 -9 -51 -32 -30 -22 20 -23 33 -2 33 10
0 14 6 10 15 -3 9 0 15 9 15 10 0 15 -11 15 -33z m380 18 c0 -8 -4 -15 -10
-15 -5 0 -10 7 -10 15 0 8 5 15 10 15 6 0 10 -7 10 -15z m1400 -6 c0 -6 -4 -7
-10 -4 -5 3 -10 11 -10 16 0 6 5 7 10 4 6 -3 10 -11 10 -16z m-1560 -29 c15
-27 6 -38 -25 -32 -27 5 -32 21 -13 40 17 17 26 15 38 -8z m-300 -30 c0 -5 -5
-10 -11 -10 -5 0 -7 5 -4 10 3 6 8 10 11 10 2 0 4 -4 4 -10z m165 -47 c-2 -21
-4 -45 -5 -53 -1 -9 -5 -6 -10 7 -6 14 -5 34 1 53 15 40 19 38 14 -7z m1639
12 c16 -12 17 -15 4 -15 -8 0 -21 7 -28 15 -16 19 -1 19 24 0z m-1864 1 c0 -3
-4 -8 -10 -11 -5 -3 -10 -1 -10 4 0 6 5 11 10 11 6 0 10 -2 10 -4z m160 -6
c12 -8 9 -10 -12 -10 -18 0 -33 -9 -44 -25 -20 -30 -38 -33 -31 -5 3 11 0 20
-6 20 -7 0 -3 7 7 15 23 17 64 19 86 5z m-130 -53 c0 -5 -4 -5 -10 -2 -5 3
-10 14 -10 23 0 15 2 15 10 2 5 -8 10 -19 10 -23z m145 13 c-3 -5 -13 -10 -21
-10 -10 0 -15 -8 -14 -22 4 -44 0 -68 -11 -68 -6 0 -9 5 -7 12 2 6 -4 20 -14
30 -15 15 -16 21 -5 31 32 30 86 50 72 27z m300 0 c3 -5 -1 -10 -10 -10 -9 0
-13 5 -10 10 3 6 8 10 10 10 2 0 7 -4 10 -10z m-145 -14 c0 -8 -4 -17 -9 -21
-12 -7 -24 12 -16 25 9 15 25 12 25 -4z m-51 -5 c9 -6 10 -11 2 -15 -13 -8
-31 1 -31 15 0 11 11 11 29 0z m101 0 c0 -12 -20 -25 -27 -18 -7 7 6 27 18 27
5 0 9 -4 9 -9z m-205 -11 c3 -5 1 -10 -4 -10 -6 0 -11 5 -11 10 0 6 2 10 4 10
3 0 8 -4 11 -10z m305 -14 c0 -3 -4 -8 -10 -11 -5 -3 -10 -1 -10 4 0 6 5 11
10 11 6 0 10 -2 10 -4z m-85 -27 c0 -8 -10 -15 -22 -17 -25 -4 -33 22 -10 31
18 8 32 2 32 -14z m181 -44 c11 -27 -1 -39 -19 -21 -17 17 -15 36 4 36 5 0 12
-7 15 -15z m-451 -15 c3 -5 1 -10 -4 -10 -6 0 -11 5 -11 10 0 6 2 10 4 10 3 0
8 -4 11 -10z m-449 -77 c-8 -15 -15 -22 -16 -15 0 17 20 55 27 49 2 -3 -2 -18
-11 -34z m2264 6 c0 -5 -4 -9 -10 -9 -5 0 -10 7 -10 16 0 8 5 12 10 9 6 -3 10
-10 10 -16z m203 -4 c15 -15 27 -36 27 -51 0 -21 27 -93 48 -128 3 -5 0 -6 -6
-2 -6 3 -13 2 -17 -4 -10 -15 -35 -12 -35 5 0 18 -17 20 -23 3 -2 -7 -8 -10
-12 -5 -11 10 26 38 43 32 19 -7 14 15 -5 22 -22 8 -43 28 -43 41 0 5 -7 23
-16 41 -15 31 -17 31 -35 15 -10 -9 -20 -15 -20 -13 -7 24 -6 59 2 59 5 0 9
-4 9 -10 0 -5 7 -10 15 -10 8 0 15 7 15 15 0 22 22 18 53 -10z m-123 -15 c0
-5 -4 -10 -10 -10 -5 0 -10 5 -10 10 0 6 5 10 10 10 6 0 10 -4 10 -10z m-3847
-31 c-3 -11 -12 -23 -19 -26 -8 -3 -12 -8 -9 -12 2 -4 -2 -8 -9 -8 -16 0 -10
23 12 50 20 23 31 22 25 -4z m4051 -79 l7 -35 -19 36 c-10 19 -22 44 -26 55
-7 18 -6 18 13 -1 10 -11 22 -36 25 -55z m-194 34 c0 -8 -4 -12 -10 -9 -5 3
-10 13 -10 21 0 8 5 12 10 9 6 -3 10 -13 10 -21z m-3434 -111 c-10 -10 -19 5
-10 18 6 11 8 11 12 0 2 -7 1 -15 -2 -18z m3701 -15 c-3 -7 -5 -2 -5 12 0 14
2 19 5 13 2 -7 2 -19 0 -25z m-143 -10 c-3 -4 -14 -3 -25 2 -11 6 -17 15 -14
20 4 6 14 5 25 -2 10 -7 16 -16 14 -20z m62 12 c0 -24 -20 -21 -24 3 -2 9 3
17 10 17 8 0 14 -9 14 -20z m-3594 -21 c-3 -20 -8 -27 -14 -21 -6 6 -6 17 1
31 16 28 18 26 13 -10z m-252 2 c0 -6 -4 -12 -10 -16 -5 -3 -7 -12 -3 -20 3
-8 0 -15 -6 -15 -6 0 -11 -6 -11 -14 0 -17 -30 -30 -42 -18 -5 5 5 26 24 50
33 40 48 51 48 33z m290 -42 c0 -5 -4 -9 -10 -9 -5 0 -10 7 -10 16 0 8 5 12
10 9 6 -3 10 -10 10 -16z m3476 -5 c-4 -9 -9 -15 -11 -12 -3 3 -3 13 1 22 4 9
9 15 11 12 3 -3 3 -13 -1 -22z m86 -46 c-16 -16 -26 30 -10 49 12 15 13 13 16
-12 2 -15 -1 -32 -6 -37z m-3766 15 c-3 -6 0 -13 6 -15 21 -7 -1 -41 -22 -35
-26 7 -72 -36 -63 -59 5 -13 3 -15 -8 -9 -55 32 -65 77 -24 115 14 13 25 18
25 12 0 -7 -4 -12 -10 -12 -5 0 -9 -16 -7 -36 l2 -35 22 25 c12 15 26 26 31
26 14 0 25 34 13 38 -6 2 -11 7 -11 12 0 4 11 3 25 -3 14 -7 23 -17 21 -24z
m3564 21 c0 -8 -5 -12 -10 -9 -6 4 -8 11 -5 16 9 14 15 11 15 -7z m-3370 -30
c0 -9 -7 -14 -17 -12 -25 5 -28 28 -4 28 12 0 21 -6 21 -16z m3500 -3 c0 -11
-4 -23 -10 -26 -6 -4 -10 5 -10 19 0 14 5 26 10 26 6 0 10 -9 10 -19z m-4000
-112 c0 -14 -103 -138 -111 -134 -8 6 -15 52 -23 152 l-4 62 69 -37 c38 -20
69 -40 69 -43z m337 59 c-3 -8 -6 -5 -6 6 -1 11 2 17 5 13 3 -3 4 -12 1 -19z
m181 -1 c2 -9 -4 -20 -13 -23 -19 -8 -20 -6 -30 24 -6 21 -4 23 16 20 13 -2
25 -11 27 -21z m3597 13 c3 -5 1 -10 -4 -10 -6 0 -11 5 -11 10 0 6 2 10 4 10
3 0 8 -4 11 -10z m-3822 -24 c6 -16 -2 -28 -14 -20 -12 7 -11 34 0 34 5 0 11
-6 14 -14z m3691 -2 c4 -10 1 -14 -6 -12 -15 5 -23 28 -10 28 5 0 13 -7 16
-16z m77 -14 c11 0 18 4 14 9 -3 5 -1 12 4 15 10 7 46 -43 37 -52 -3 -3 -6 0
-6 7 0 6 -10 10 -22 7 -33 -5 -68 11 -68 31 1 17 1 17 11 1 5 -10 19 -18 30
-18z m-96 -91 c-9 -55 -24 -49 -17 7 3 34 2 45 -7 40 -7 -5 -11 5 -11 31 l0
38 21 -39 c15 -29 19 -48 14 -77z m-3705 80 c0 -5 -4 -9 -10 -9 -5 0 -10 7
-10 16 0 8 5 12 10 9 6 -3 10 -10 10 -16z m140 1 c0 -5 -4 -10 -10 -10 -5 0
-10 5 -10 10 0 6 5 10 10 10 6 0 10 -4 10 -10z m-95 -30 c10 -11 15 -23 12
-26 -4 -4 -9 0 -12 8 -4 10 -16 13 -38 11 -30 -4 -31 -3 -13 11 25 20 29 20
51 -4z m2642 -22 c-3 -8 -6 -5 -6 6 -1 11 2 17 5 13 3 -3 4 -12 1 -19z m-2419
-5 c16 -16 16 -16 -1 -10 -10 4 -25 7 -33 7 -9 0 -12 5 -9 10 9 15 24 12 43
-7z m1 -51 c7 -13 6 -23 -1 -30 -9 -9 -9 -12 2 -12 7 0 11 -3 8 -6 -5 -4 -42
10 -56 21 -5 5 22 45 30 45 4 0 12 -8 17 -18z m3421 -42 c12 -23 5 -26 -16 -6
-16 17 -18 26 -4 26 5 0 14 -9 20 -20z m85 -20 c3 -5 1 -10 -4 -10 -6 0 -11 5
-11 10 0 6 2 10 4 10 3 0 8 -4 11 -10z m35 -65 c-7 -9 -15 -13 -19 -10 -3 3 1
10 9 15 21 14 24 12 10 -5z m-48 -15 c7 -11 18 -20 25 -20 14 0 21 -19 15 -43
-6 -22 -22 -18 -36 9 -6 10 -14 21 -17 24 -4 3 -9 15 -13 28 -9 28 9 29 26 2z
m90 -40 c6 0 8 -3 5 -6 -10 -11 -38 17 -30 30 5 7 9 5 11 -6 2 -10 8 -18 14
-18z m52 -78 c-7 -2 -22 5 -34 15 l-21 18 23 5 c17 4 26 0 33 -15 8 -15 8 -21
-1 -23z"/>
<path d="M2735 3837 c7 -28 -24 -61 -49 -51 -21 8 -2 34 25 34 13 0 16 5 12
16 -3 9 -8 12 -12 5 -11 -18 -63 -33 -75 -21 -7 7 -3 10 12 10 12 0 22 5 22
10 0 17 -64 8 -84 -12 -19 -18 -19 -18 7 -18 40 0 42 -18 3 -25 -24 -5 -33
-11 -29 -21 3 -10 9 -11 17 -5 13 11 66 10 59 -1 -2 -5 0 -8 6 -8 5 0 11 5 13
12 3 7 12 9 22 5 15 -6 16 -10 6 -21 -9 -12 -7 -17 9 -25 27 -15 28 -14 34 11
4 13 1 26 -6 30 -23 15 13 9 43 -7 32 -16 38 -8 20 25 -5 10 -18 17 -27 16
-10 -2 -12 -1 -5 1 6 3 12 8 12 13 0 5 15 10 33 12 l32 3 -34 18 c-49 25 -73
23 -66 -6z"/>
<path d="M2610 3740 c0 -5 7 -10 15 -10 8 0 15 5 15 10 0 6 -7 10 -15 10 -8 0
-15 -4 -15 -10z"/>
<path d="M3220 3034 c-25 -14 -54 -35 -65 -47 -28 -30 -68 -87 -61 -87 3 0 29
18 57 39 76 57 125 68 199 46 75 -23 116 -47 123 -74 4 -18 2 -19 -27 -13 -17
4 -65 7 -107 7 -77 0 -109 -12 -109 -41 0 -10 11 -8 48 7 64 28 135 22 198
-17 26 -16 49 -36 51 -44 4 -12 3 -12 -5 -2 -5 8 -15 12 -23 11 -8 -2 -30 1
-49 6 -60 15 -173 12 -187 -5 -10 -12 -15 -13 -32 -2 -18 10 -21 10 -21 -5 0
-10 -3 -28 -6 -40 -5 -17 -2 -23 9 -23 9 0 21 -9 27 -20 6 -11 16 -20 22 -20
6 0 8 3 5 7 -4 3 -2 12 4 19 8 10 14 9 30 -7 19 -19 59 -26 59 -10 0 5 9 11
19 14 11 3 22 17 26 36 8 37 13 37 66 11 34 -18 38 -23 29 -40 -9 -17 -6 -22
22 -34 33 -14 33 -14 6 -15 -14 -1 -28 -6 -30 -13 -3 -7 -16 -13 -31 -13 -14
-1 -32 -6 -39 -12 -7 -6 -22 -13 -33 -16 -11 -2 5 -5 35 -6 67 -1 147 33 142
62 -2 12 4 17 23 17 19 0 26 5 24 18 -3 24 11 52 26 52 16 0 35 51 35 92 0 58
-41 92 -153 130 -198 67 -239 71 -307 32z m145 -224 c3 -5 -1 -10 -10 -10 -9
0 -13 5 -10 10 3 6 8 10 10 10 2 0 7 -4 10 -10z"/>
<path d="M3950 2413 c0 -5 7 -17 15 -27 15 -20 20 -10 9 18 -6 16 -24 22 -24
9z"/>
<path d="M3674 2322 c-17 -11 -36 -51 -29 -62 3 -6 16 -10 28 -10 17 0 19 2 8
9 -22 14 32 26 56 13 11 -6 25 -7 32 -3 9 6 4 15 -19 35 -32 26 -56 32 -76 18z"/>
<path d="M3895 2295 c-24 -15 -48 -23 -60 -19 -15 4 -16 3 -6 -4 10 -8 6 -11
-18 -17 -33 -7 -40 -25 -16 -45 10 -9 15 -9 15 -1 0 6 5 11 10 11 6 0 10 -13
10 -30 0 -19 5 -30 14 -30 8 0 14 -6 13 -12 -2 -51 4 -69 21 -66 9 2 17 12 17
22 0 10 9 22 20 26 12 4 27 15 34 24 12 14 15 13 33 -9 11 -14 25 -22 33 -18
9 3 15 -1 15 -10 0 -8 -7 -17 -15 -21 -8 -3 -15 -1 -15 4 0 6 -9 10 -19 10
-19 0 -35 -25 -26 -40 3 -4 -13 -7 -35 -6 -22 0 -40 -2 -40 -6 0 -14 59 -48
74 -42 9 3 16 1 16 -5 0 -29 77 3 104 43 14 22 14 26 2 26 -8 0 -22 -8 -31
-17 -14 -13 -21 -14 -35 -5 -15 9 -21 7 -32 -10 -8 -12 -17 -17 -20 -12 -4 5
2 20 11 33 15 20 21 22 39 12 18 -10 22 -9 22 3 0 21 41 58 58 51 7 -3 20 1
28 9 19 20 18 32 -2 15 -13 -10 -17 -10 -24 0 -6 10 -10 9 -18 -5 -6 -10 -13
-16 -17 -12 -11 11 5 47 25 58 16 8 18 8 14 -5 -7 -17 11 -21 21 -4 4 6 14 8
22 5 9 -4 13 -1 10 6 -2 7 -10 12 -17 10 -7 -1 -23 4 -37 13 -19 13 -27 14
-39 5 -7 -7 -11 -16 -8 -21 3 -5 -1 -9 -9 -9 -12 0 -27 19 -27 35 0 1 12 6 26
9 l27 7 -23 25 c-27 28 -60 32 -60 7 0 -14 -5 -12 -23 9 l-22 27 -40 -24z"/>
<path d="M4115 2120 c-3 -5 -1 -10 4 -10 6 0 11 5 11 10 0 6 -2 10 -4 10 -3 0
-8 -4 -11 -10z"/>
<path d="M4085 2110 c3 -5 8 -10 11 -10 2 0 4 5 4 10 0 6 -5 10 -11 10 -5 0
-7 -4 -4 -10z"/>
<path d="M4080 2025 c0 -8 4 -15 10 -15 5 0 7 7 4 15 -4 8 -8 15 -10 15 -2 0
-4 -7 -4 -15z"/>
<path d="M4040 2000 c-14 -11 -20 -20 -14 -20 14 0 50 27 44 33 -3 3 -16 -3
-30 -13z"/>
<path d="M4495 2880 c3 -5 12 -10 20 -10 8 0 17 5 20 10 4 6 -5 10 -20 10 -15
0 -24 -4 -20 -10z"/>
<path d="M2643 3993 c-32 -12 -8 -24 45 -21 62 3 86 -6 78 -28 -3 -8 1 -14 9
-14 19 0 24 11 18 43 -5 26 -7 27 -72 26 -36 0 -72 -3 -78 -6z"/>
<path d="M3077 3993 c-14 -13 -6 -19 21 -17 38 2 39 3 22 14 -18 11 -34 13
-43 3z"/>
<path d="M3430 3989 c0 -5 5 -7 10 -4 6 3 10 8 10 11 0 2 -4 4 -10 4 -5 0 -10
-5 -10 -11z"/>
<path d="M3560 3996 c0 -8 51 -13 56 -5 3 5 -9 9 -25 9 -17 0 -31 -2 -31 -4z"/>
<path d="M4644 3985 c-3 -8 -12 -15 -20 -15 -20 0 -89 -50 -86 -62 2 -6 -3
-18 -11 -27 -16 -19 -20 -61 -6 -61 21 0 -5 -22 -47 -40 -24 -11 -44 -24 -44
-30 0 -11 11 -9 60 8 8 3 3 -8 -12 -25 -16 -16 -28 -35 -28 -42 0 -7 -5 -9
-12 -5 -6 4 -8 3 -5 -2 3 -5 28 -9 56 -8 38 0 51 -3 51 -14 0 -8 6 -12 14 -9
8 3 18 -5 25 -19 6 -13 15 -24 21 -24 6 0 9 4 5 9 -3 5 0 13 6 17 8 4 7 9 -2
16 -11 6 -5 16 26 43 42 36 61 44 52 22 -3 -9 5 -13 29 -13 26 0 31 3 22 13
-6 7 -16 13 -23 13 -8 0 -15 5 -17 12 -3 9 -12 9 -38 0 -30 -11 -36 -10 -53 9
-10 11 -17 22 -16 23 11 9 69 14 69 7 0 -5 9 -7 20 -4 11 3 20 0 20 -6 0 -6 9
-2 21 10 14 14 24 18 31 11 7 -7 19 -7 34 -2 13 5 29 7 36 5 15 -6 78 30 78
45 0 5 -7 10 -15 10 -8 0 -15 -4 -15 -9 0 -10 -30 -19 -47 -14 -7 2 -9 11 -6
19 3 8 0 14 -7 14 -7 0 -11 -9 -8 -23 3 -17 0 -23 -14 -23 -10 0 -18 3 -18 7
0 4 -8 6 -17 5 -14 -1 -17 6 -15 29 2 23 -3 32 -20 40 -31 14 -35 35 -6 35 13
0 30 6 37 13 10 10 15 8 27 -7 12 -17 14 -17 14 -3 0 10 5 14 15 11 8 -4 15
-1 15 6 0 6 -8 10 -17 9 -22 -3 -73 18 -73 29 0 4 -18 9 -40 10 -29 2 -42 -2
-46 -13z m71 -113 c3 -8 2 -18 -1 -24 -4 -6 -1 -14 7 -18 10 -7 10 -11 0 -24
-13 -16 -36 -12 -26 4 9 15 -29 22 -40 7 -9 -12 -12 -12 -23 -1 -18 20 -15 29
11 29 16 0 22 6 21 21 0 16 5 21 23 20 12 0 25 -7 28 -14z m-145 -152 c0 -5
-4 -10 -10 -10 -5 0 -10 5 -10 10 0 6 5 10 10 10 6 0 10 -4 10 -10z m50 6 c0
-2 -3 -11 -6 -20 -9 -23 -34 -20 -34 4 0 13 7 20 20 20 11 0 20 -2 20 -4z"/>
<path d="M4838 3986 c-15 -11 -15 -16 -5 -30 16 -22 44 -12 50 20 5 27 -16 32
-45 10z"/>
<path d="M2990 3980 c0 -6 5 -10 10 -10 6 0 10 -7 10 -16 0 -8 4 -13 10 -9 5
3 7 12 4 20 -7 16 -34 28 -34 15z"/>
<path d="M3036 3975 c4 -8 10 -12 15 -9 11 6 2 24 -11 24 -5 0 -7 -7 -4 -15z"/>
<path d="M2255 3951 c17 -12 37 -21 45 -20 13 0 13 1 0 6 -8 3 -17 9 -20 13
-3 4 -16 11 -30 14 -23 7 -23 6 5 -13z"/>
<path d="M4807 3912 c-26 -29 -20 -44 8 -20 25 22 32 38 17 38 -5 0 -16 -8
-25 -18z"/>
<path d="M2990 3910 c0 -5 5 -10 10 -10 6 0 10 5 10 10 0 6 -4 10 -10 10 -5 0
-10 -4 -10 -10z"/>
<path d="M4880 3882 c0 -14 11 -21 26 -15 8 3 11 9 8 14 -7 11 -34 12 -34 1z"/>
<path d="M4760 3866 c0 -8 5 -18 10 -21 6 -3 10 1 10 9 0 8 -4 18 -10 21 -5 3
-10 -1 -10 -9z"/>
<path d="M4946 3844 c-8 -21 -8 -21 14 -27 13 -3 20 -14 21 -31 2 -39 3 -44
13 -53 5 -4 5 13 1 42 -4 28 -11 51 -15 53 -5 2 -6 10 -3 18 3 8 -1 14 -10 14
-8 0 -18 -7 -21 -16z"/>
<path d="M3980 3840 c0 -5 5 -10 10 -10 6 0 10 5 10 10 0 6 -4 10 -10 10 -5 0
-10 -4 -10 -10z"/>
<path d="M2170 3815 c0 -8 5 -15 10 -15 6 0 10 7 10 15 0 8 -4 15 -10 15 -5 0
-10 -7 -10 -15z"/>
<path d="M2003 3798 c-23 -30 -27 -43 -7 -26 12 11 28 15 42 11 13 -3 22 -1
22 6 0 6 -4 11 -9 11 -5 0 -16 2 -24 5 -7 3 -18 0 -24 -7z"/>
<path d="M4400 3790 c0 -5 5 -10 11 -10 5 0 7 5 4 10 -3 6 -8 10 -11 10 -2 0
-4 -4 -4 -10z"/>
<path d="M4750 3735 c12 -15 30 -12 30 6 0 5 -10 9 -21 9 -18 0 -19 -2 -9 -15z"/>
<path d="M4986 3711 c-4 -7 -5 -15 -2 -18 9 -9 19 4 14 18 -4 11 -6 11 -12 0z"/>
<path d="M2020 3676 c0 -9 5 -16 10 -16 6 0 10 4 10 9 0 6 -4 13 -10 16 -5 3
-10 -1 -10 -9z"/>
<path d="M2370 3679 c-12 -9 -12 -10 3 -5 13 4 20 0 24 -14 4 -15 13 -20 37
-19 26 1 27 2 7 6 -13 3 -31 13 -40 24 -12 14 -20 16 -31 8z"/>
<path d="M4642 3670 c-12 -20 -6 -25 22 -14 19 7 21 34 3 34 -7 0 -18 -9 -25
-20z"/>
<path d="M4695 3681 c-6 -11 9 -23 19 -14 9 9 7 23 -3 23 -6 0 -12 -4 -16 -9z"/>
<path d="M4631 3626 c-8 -10 -9 -16 -1 -21 5 -3 13 1 16 10 9 22 -1 29 -15 11z"/>
<path d="M4960 3605 c0 -8 5 -15 10 -15 6 0 10 7 10 15 0 8 -4 15 -10 15 -5 0
-10 -7 -10 -15z"/>
<path d="M5153 3493 c9 -2 23 -2 30 0 6 3 -1 5 -18 5 -16 0 -22 -2 -12 -5z"/>
<path d="M5230 3480 c19 -5 85 -14 145 -20 186 -17 265 -29 324 -45 61 -18
207 -73 286 -108 75 -33 276 -219 346 -319 32 -46 69 -96 82 -113 36 -45 76
-149 93 -245 27 -148 43 -302 44 -403 0 -107 -14 -149 -84 -246 -56 -79 -70
-89 -251 -180 -50 -25 -163 -71 -192 -78 -19 -4 -22 0 -29 43 -3 27 -14 65
-24 84 -9 19 -20 48 -24 64 -8 32 -73 111 -114 138 -29 19 -105 24 -144 9 -45
-18 -71 -51 -64 -84 16 -80 99 -220 152 -256 25 -18 45 -21 122 -21 l92 0 0
-88 c0 -117 25 -206 84 -291 39 -58 63 -79 173 -153 215 -144 362 -219 543
-278 47 -16 111 -40 144 -54 32 -15 60 -25 63 -22 7 7 -103 54 -212 91 -55 19
-125 45 -155 57 -85 36 -279 144 -342 191 -31 23 -81 58 -112 77 -31 19 -56
38 -56 42 0 4 -15 28 -34 53 -58 75 -76 139 -76 268 l0 112 82 30 c45 17 100
40 122 51 23 12 74 39 114 59 71 37 95 59 158 147 49 67 75 126 81 182 5 46
-22 350 -33 367 -2 4 -9 42 -15 85 -5 44 -18 95 -28 114 -10 19 -21 47 -24 62
-4 14 -22 46 -40 70 -18 24 -44 61 -57 83 -36 60 -95 132 -132 162 -18 15 -71
62 -118 104 -97 87 -107 93 -256 149 -124 46 -233 76 -314 85 -30 3 -82 10
-115 15 -86 13 -250 21 -205 10z m647 -1486 c29 -31 53 -63 53 -72 0 -9 8 -34
19 -56 16 -34 41 -121 41 -140 0 -3 -45 -6 -99 -6 -92 0 -102 2 -130 26 -17
14 -31 31 -31 37 0 6 -6 18 -14 26 -30 33 -76 140 -76 174 0 51 27 67 114 67
l70 0 53 -56z"/>
<path d="M2365 3350 c-3 -5 1 -10 10 -10 9 0 13 5 10 10 -3 6 -8 10 -10 10 -2
0 -7 -4 -10 -10z"/>
<path d="M2360 3310 c0 -5 5 -10 11 -10 5 0 7 5 4 10 -3 6 -8 10 -11 10 -2 0
-4 -4 -4 -10z"/>
<path d="M2390 3291 c0 -5 5 -13 10 -16 6 -3 10 -2 10 4 0 5 -4 13 -10 16 -5
3 -10 2 -10 -4z"/>
<path d="M2107 3229 c7 -7 15 -10 18 -7 3 3 -2 9 -12 12 -14 6 -15 5 -6 -5z"/>
<path d="M2140 3207 c0 -7 91 -60 95 -55 5 4 -54 44 -77 54 -10 3 -18 4 -18 1z"/>
<path d="M5440 921 c0 -6 4 -13 10 -16 6 -3 7 1 4 9 -7 18 -14 21 -14 7z"/>
<path d="M3720 740 c0 -18 4 -29 10 -25 6 3 10 15 10 25 0 10 -4 22 -10 25 -6
4 -10 -7 -10 -25z"/>
<path d="M1710 279 c0 -5 5 -7 10 -4 6 3 10 8 10 11 0 2 -4 4 -10 4 -5 0 -10
-5 -10 -11z"/>
<path d="M1885 272 c-14 -10 -39 -61 -33 -67 9 -9 50 43 46 59 -1 8 -8 12 -13
8z"/>
<path d="M1520 240 c0 -5 10 -10 23 -10 18 0 19 2 7 10 -19 13 -30 13 -30 0z"/>
<path d="M1791 169 c-31 -25 -23 -33 9 -9 14 10 23 21 20 23 -3 3 -16 -3 -29
-14z"/>
<path d="M1890 160 c-9 -6 -10 -10 -3 -10 6 0 15 5 18 10 8 12 4 12 -15 0z"/>
<path d="M4442 125 c0 -16 2 -22 5 -12 2 9 2 23 0 30 -3 6 -5 -1 -5 -18z"/>
<path d="M1757 73 c-4 -3 -7 -11 -7 -17 0 -6 5 -5 12 2 6 6 9 14 7 17 -3 3 -9
2 -12 -2z"/>
<path d="M1755 20 c-10 -11 -13 -20 -8 -20 13 0 38 29 31 35 -3 3 -13 -4 -23
-15z"/>
<path d="M1452 14 c-7 -8 -8 -14 -3 -14 10 0 25 19 20 25 -2 1 -10 -3 -17 -11z"/>
<path d="M1490 16 c0 -9 5 -16 10 -16 6 0 10 4 10 9 0 6 -4 13 -10 16 -5 3
-10 -1 -10 -9z"/>
<path d="M1531 14 c-12 -14 -11 -16 4 -12 10 1 20 9 23 16 5 17 -10 15 -27 -4z"/>
</g>
</svg>
